<?xml version="1.0" encoding="utf-8"?>
<!-- Generator: Adobe Illustrator 16.0.0, SVG Export Plug-In . SVG Version: 6.00 Build 0)  -->
<!DOCTYPE svg PUBLIC "-//W3C//DTD SVG 1.1//EN" "http://www.w3.org/Graphics/SVG/1.1/DTD/svg11.dtd">
<svg version="1.1" id="final_1_" xmlns="http://www.w3.org/2000/svg" xmlns:xlink="http://www.w3.org/1999/xlink" x="0px" y="0px"
	 width="41.127px" height="34px" viewBox="0 0 41.127 34" enable-background="new 0 0 41.127 34" xml:space="preserve">
<g id="svg_1_">
	<g id="menu">
		<g>
			<path fill="#3F9BAA" d="M2.986,5.517h35.155c1.393,0,2.52-1.127,2.52-2.517c-0.002-1.39-1.129-2.517-2.519-2.517H2.986
				C1.595,0.482,0.468,1.609,0.468,3C0.468,4.39,1.595,5.517,2.986,5.517z M38.142,14.482H2.986c-1.391,0-2.518,1.127-2.518,2.518
				c0,1.392,1.127,2.517,2.519,2.517h35.155c1.392,0,2.519-1.125,2.519-2.517C40.66,15.609,39.531,14.482,38.142,14.482z
				 M38.142,28.482H2.986c-1.391,0-2.518,1.126-2.518,2.518c0,1.391,1.127,2.518,2.519,2.518h35.155
				c1.392,0,2.519-1.127,2.519-2.518C40.658,29.608,39.531,28.482,38.142,28.482z"/>
		</g>
	</g>
</g>
</svg>
