<?xml version="1.0" encoding="utf-8"?>
<!-- Generator: Adobe Illustrator 16.0.0, SVG Export Plug-In . SVG Version: 6.00 Build 0)  -->
<!DOCTYPE svg PUBLIC "-//W3C//DTD SVG 1.1//EN" "http://www.w3.org/Graphics/SVG/1.1/DTD/svg11.dtd">
<svg version="1.1" id="Layer_1" xmlns="http://www.w3.org/2000/svg" xmlns:xlink="http://www.w3.org/1999/xlink" x="0px" y="0px"
	 width="200px" height="163.266px" viewBox="0 0 200 163.266" enable-background="new 0 0 200 163.266" xml:space="preserve">
<path fill="#FFFFFF" d="M200,19.604c-7.357,3.264-15.268,5.469-23.566,6.461c8.471-5.078,14.979-13.119,18.041-22.701
	c-7.929,4.703-16.709,8.117-26.057,9.957c-7.484-7.975-18.148-12.957-29.95-12.957c-22.659,0-41.033,18.371-41.033,41.031
	c0,3.216,0.363,6.348,1.063,9.351C64.396,49.035,34.161,32.7,13.924,7.875c-3.532,6.061-5.556,13.108-5.556,20.628
	c0,14.236,7.244,26.795,18.254,34.153c-6.726-0.213-13.053-2.059-18.585-5.132c-0.004,0.171-0.004,0.343-0.004,0.516
	c0,19.88,14.144,36.463,32.915,40.235c-3.443,0.938-7.068,1.438-10.81,1.438c-2.644,0-5.214-0.258-7.72-0.735
	c5.222,16.301,20.375,28.164,38.331,28.494c-14.043,11.006-31.735,17.565-50.96,17.565c-3.312,0-6.578-0.195-9.788-0.574
	C18.159,156.107,39.727,162.9,62.899,162.9c75.473,0,116.746-62.523,116.746-116.747c0-1.779-0.039-3.548-0.119-5.31
	C187.543,35.06,194.499,27.833,200,19.604z"/>
</svg>
